<?xml version="1.0" encoding="UTF-8"?>
<svg version="1.1" id="Layer_1" xmlns="http://www.w3.org/2000/svg" xmlns:xlink="http://www.w3.org/1999/xlink" x="0px" y="0px"
	 width="100%" viewBox="455 380 490 245" xml:space="preserve">

  <path fill="#0e1f38" opacity="1.000000" stroke="none" 
	d="
M869.223999,446.250854 
	C881.584961,430.294891 893.788879,414.667480 905.811584,398.901855 
	C908.067993,395.942963 910.532227,394.543304 914.246155,394.787537 
	C917.896729,395.027588 921.575500,394.834747 925.241943,394.839050 
	C932.260620,394.847290 932.283081,394.849396 932.286194,401.670227 
	C932.293762,418.169189 932.275635,434.668182 932.272644,451.167145 
	C932.267761,478.665436 932.177979,506.164246 932.351807,533.661438 
	C932.380432,538.196899 931.211548,539.934326 926.448364,539.513245 
	C921.321716,539.059875 916.113953,539.195801 910.961731,539.463562 
	C906.756958,539.682068 905.545837,537.996399 905.565979,533.943237 
	C905.699890,506.945587 905.637939,479.946991 905.639587,452.948669 
	C905.639771,449.805786 905.639526,446.662903 905.639526,441.936432 
	C901.481873,447.172607 898.227112,451.214264 895.033630,455.303772 
	C882.832703,470.927795 870.664185,486.577240 858.455688,502.195343 
	C854.386719,507.400726 854.027100,507.338715 849.865234,501.999664 
	C835.318420,483.338226 820.750610,464.693146 806.182861,446.048035 
	C805.374329,445.013275 804.689209,443.822418 803.072815,443.296631 
	C801.737671,444.808472 802.349548,446.696869 802.346802,448.372498 
	C802.299866,476.537292 802.206726,504.702972 802.404724,532.866455 
	C802.439026,537.752136 801.275696,539.951721 796.028198,539.481812 
	C791.564392,539.082092 787.036133,539.417847 782.536499,539.399414 
	C775.789917,539.371826 775.767090,539.361084 775.764771,532.345642 
	C775.755310,504.014069 775.761902,475.682526 775.761169,447.350952 
	C775.760742,431.685272 775.858215,416.018463 775.686462,400.354645 
	C775.642151,396.312500 776.858337,394.778381 781.079224,394.741913 
	C799.747498,394.580536 799.659241,394.541016 810.887512,409.183655 
	C824.575439,427.033813 838.427063,444.758575 852.219238,462.528717 
	C852.714722,463.167084 853.332642,463.710419 854.694397,465.136993 
	C859.598938,458.760223 864.301575,452.645935 869.223999,446.250854 
z"/>

  <path fill="#0e1f38" opacity="1.000000" stroke="none" 
	d="
M463.912537,536.718506 
	C463.825409,490.920929 463.844940,445.594299 463.719177,400.268097 
	C463.707703,396.131958 465.106140,394.788361 469.220917,394.758575 
	C487.143372,394.628876 487.032013,394.615967 498.540955,408.703003 
	C520.043823,435.022491 541.682007,461.231415 563.296692,487.459320 
	C564.315308,488.695312 565.067322,490.304413 566.923157,490.833099 
	C568.277771,489.039703 567.676758,486.978790 567.679443,485.073761 
	C567.719116,457.077759 567.793213,429.081085 567.610229,401.086182 
	C567.579346,396.352936 568.935242,394.421753 573.829102,394.762878 
	C578.804321,395.109650 583.837646,395.086151 588.817322,394.774414 
	C593.669800,394.470673 595.184998,396.428619 595.148560,401.149719 
	C594.973755,423.811859 595.056091,446.476013 595.051208,469.139435 
	C595.046570,490.636200 594.950623,512.133789 595.123352,533.629150 
	C595.159485,538.124451 593.766235,539.075073 589.211670,539.652405 
	C575.993408,541.327881 567.468689,536.569519 559.274414,525.764832 
	C539.454041,499.630249 518.016113,474.721405 497.174896,449.363953 
	C495.541992,447.377228 494.319702,444.840424 491.549896,443.919434 
	C489.526306,445.530853 490.368958,447.695435 490.365295,449.539124 
	C490.310089,477.368439 490.215851,505.198944 490.455750,533.026367 
	C490.499878,538.143921 488.918060,539.851562 483.907471,539.489136 
	C478.768005,539.117188 473.581207,539.425903 468.415741,539.373657 
	C466.632233,539.355591 464.596375,539.660645 463.912537,536.718506 
z"/>

  <path fill="#0e1f38" opacity="1.000000" stroke="none" 
	d="
M629.221252,462.701294 
	C651.026428,462.700745 672.356384,462.683716 693.686096,462.735687 
	C698.609009,462.747681 703.329651,461.905365 707.711670,459.693695 
	C715.543579,455.740875 719.004028,449.088318 718.665100,440.522705 
	C718.334534,432.168488 713.882568,426.543854 706.223450,423.432098 
	C702.162964,421.782379 697.910400,421.200287 693.514038,421.213776 
	C672.684265,421.277802 651.852844,421.122253 631.025330,421.352234 
	C626.189270,421.405609 624.464417,419.861511 624.766663,415.063751 
	C625.101318,409.751831 624.882568,404.403595 624.861084,399.071350 
	C624.850891,396.532166 625.714783,394.828033 628.562012,394.877960 
	C654.035095,395.324646 679.597961,393.151581 704.966614,395.970825 
	C727.410156,398.465057 742.257202,412.804504 745.773071,433.172333 
	C749.251587,453.324341 739.674072,473.521149 722.914246,481.790344 
	C719.648987,483.401398 717.149170,483.446808 714.388794,480.820526 
	C712.116516,478.658539 709.447571,476.848969 706.755798,475.209229 
	C703.606995,473.291138 700.177124,472.140656 695.582275,473.494965 
	L652.248779,488.306396 
	C652.245728,488.171143 652.241577,501.404724 652.238159,512.402893 
	C652.116394,523.403198 652.301575,534.398193 652.366821,538.274658 
	C651.186768,539.735413 647.147461,539.518127 641.333984,539.205261 
	C635.480713,539.309143 629.660095,539.575806 629.660095,539.575806 
	C626.259827,539.731567 624.788879,538.733154 624.803284,535.161743 
	C624.894653,512.499207 624.872620,489.836060 624.860962,467.173126 
	C624.859558,464.487518 625.539368,462.535400 629.221252,462.701294 
z"/>

  <path fill="#f37024" opacity="1.000000" stroke="none"
	d="
M695.582275,473.494965
	C713.542175,495.883484 732.603943,516.644348 750.825562,537.929871 
	C749.410583,539.744263 748.018555,539.485962 746.713623,539.481812 
	C737.382263,539.452332 728.049988,539.323425 718.720093,539.422913 
	C715.769104,539.454346 713.798218,538.394287 711.908691,536.158630 
	C699.542908,521.527405 686.955566,507.082458 674.674255,492.381500 
	C672.042480,489.231262 669.307678,488.059875 665.288208,488.117950
z"/>

  <text x="465" y="612" fill="#0e1f38" font-family="Sora, system-ui, sans-serif" font-size="70" font-weight="500" textLength="460" lengthAdjust="spacing">SUPPLY</text>

</svg>