<?xml version="1.0" encoding="UTF-8"?>
<svg version="1.1" id="Layer_1" xmlns="http://www.w3.org/2000/svg" xmlns:xlink="http://www.w3.org/1999/xlink" x="0px" y="0px"
	 width="100%" viewBox="90 355 855 280" enable-background="new 90 355 855 280" xml:space="preserve">

  <!-- NRM SUPPLY COLORED LOGO (TIGHT CROPPED VIEWBOX) -->
  
  <!-- "M" (Navy Blue) -->
  <path fill="#0e1f38" opacity="1.000000" stroke="none" 
	d="
M869.223999,446.250854 
	C881.584961,430.294891 893.788879,414.667480 905.811584,398.901855 
	C908.067993,395.942963 910.532227,394.543304 914.246155,394.787537 
	C917.896729,395.027588 921.575500,394.834747 925.241943,394.839050 
	C932.260620,394.847290 932.283081,394.849396 932.286194,401.670227 
	C932.293762,418.169189 932.275635,434.668182 932.272644,451.167145 
	C932.267761,478.665436 932.177979,506.164246 932.351807,533.661438 
	C932.380432,538.196899 931.211548,539.934326 926.448364,539.513245 
	C921.321716,539.059875 916.113953,539.195801 910.961731,539.463562 
	C906.756958,539.682068 905.545837,537.996399 905.565979,533.943237 
	C905.699890,506.945587 905.637939,479.946991 905.639587,452.948669 
	C905.639771,449.805786 905.639526,446.662903 905.639526,441.936432 
	C901.481873,447.172607 898.227112,451.214264 895.033630,455.303772 
	C882.832703,470.927795 870.664185,486.577240 858.455688,502.195343 
	C854.386719,507.400726 854.027100,507.338715 849.865234,501.999664 
	C835.318420,483.338226 820.750610,464.693146 806.182861,446.048035 
	C805.374329,445.013275 804.689209,443.822418 803.072815,443.296631 
	C801.737671,444.808472 802.349548,446.696869 802.346802,448.372498 
	C802.299866,476.537292 802.206726,504.702972 802.404724,532.866455 
	C802.439026,537.752136 801.275696,539.951721 796.028198,539.481812 
	C791.564392,539.082092 787.036133,539.417847 782.536499,539.399414 
	C775.789917,539.371826 775.767090,539.361084 775.764771,532.345642 
	C775.755310,504.014069 775.761902,475.682526 775.761169,447.350952 
	C775.760742,431.685272 775.858215,416.018463 775.686462,400.354645 
	C775.642151,396.312500 776.858337,394.778381 781.079224,394.741913 
	C799.747498,394.580536 799.659241,394.541016 810.887512,409.183655 
	C824.575439,427.033813 838.427063,444.758575 852.219238,462.528717 
	C852.714722,463.167084 853.332642,463.710419 854.694397,465.136993 
	C859.598938,458.760223 864.301575,452.645935 869.223999,446.250854 
z"/>

  <!-- "N" (Navy Blue) -->
  <path fill="#0e1f38" opacity="1.000000" stroke="none" 
	d="
M463.912537,536.718506 
	C463.825409,490.920929 463.844940,445.594299 463.719177,400.268097 
	C463.707703,396.131958 465.106140,394.788361 469.220917,394.758575 
	C487.143372,394.628876 487.032013,394.615967 498.540955,408.703003 
	C520.043823,435.022491 541.682007,461.231415 563.296692,487.459320 
	C564.315308,488.695312 565.067322,490.304413 566.923157,490.833099 
	C568.277771,489.039703 567.676758,486.978790 567.679443,485.073761 
	C567.719116,457.077759 567.793213,429.081085 567.610229,401.086182 
	C567.579346,396.352936 568.935242,394.421753 573.829102,394.762878 
	C578.804321,395.109650 583.837646,395.086151 588.817322,394.774414 
	C593.669800,394.470673 595.184998,396.428619 595.148560,401.149719 
	C594.973755,423.811859 595.056091,446.476013 595.051208,469.139435 
	C595.046570,490.636200 594.950623,512.133789 595.123352,533.629150 
	C595.159485,538.124451 593.766235,539.075073 589.211670,539.652405 
	C575.993408,541.327881 567.468689,536.569519 559.274414,525.764832 
	C539.454041,499.630249 518.016113,474.721405 497.174896,449.363953 
	C495.541992,447.377228 494.319702,444.840424 491.549896,443.919434 
	C489.526306,445.530853 490.368958,447.695435 490.365295,449.539124 
	C490.310089,477.368439 490.215851,505.198944 490.455750,533.026367 
	C490.499878,538.143921 488.918060,539.851562 483.907471,539.489136 
	C478.768005,539.117188 473.581207,539.425903 468.415741,539.373657 
	C466.632233,539.355591 464.596375,539.660645 463.912537,536.718506 
z"/>

  <!-- "R" Body (Navy Blue) - With orange leg path removed -->
  <path fill="#0e1f38" opacity="1.000000" stroke="none" 
	d="
M629.221252,462.701294 
	C651.026428,462.700745 672.356384,462.683716 693.686096,462.735687 
	C698.609009,462.747681 703.329651,461.905365 707.711670,459.693695 
	C715.543579,455.740875 719.004028,449.088318 718.665100,440.522705 
	C718.334534,432.168488 713.882568,426.543854 706.223450,423.432098 
	C702.162964,421.782379 697.910400,421.200287 693.514038,421.213776 
	C672.684265,421.277802 651.852844,421.122253 631.025330,421.352234 
	C626.189270,421.405609 624.464417,419.861511 624.766663,415.063751 
	C625.101318,409.751831 624.882568,404.403595 624.861084,399.071350 
	C624.850891,396.532166 625.714783,394.828033 628.562012,394.877960 
	C654.035095,395.324646 679.597961,393.151581 704.966614,395.970825 
	C727.410156,398.465057 742.257202,412.804504 745.773071,433.172333 
	C749.251587,453.324341 739.674072,473.521149 722.914246,481.790344 
	C719.648987,483.401398 717.149170,483.446808 714.388794,480.820526 
	C712.116516,478.658539 709.447571,476.848969 706.755798,475.209229 
	C703.606995,473.291138 700.177124,472.140656 695.582275,473.494965 
	L652.248779,488.306396 
	C652.245728,488.171143 652.241577,501.404724 652.238159,512.402893 
	C652.116394,523.403198 652.301575,534.398193 652.366821,538.274658 
	C651.186768,539.735413 647.147461,539.518127 641.333984,539.205261 
	C635.480713,539.309143 629.660095,539.575806 629.660095,539.575806 
	C626.259827,539.731567 624.788879,538.733154 624.803284,535.161743 
	C624.894653,512.499207 624.872620,489.836060 624.860962,467.173126 
	C624.859558,464.487518 625.539368,462.535400 629.221252,462.701294 
z"/>

  <!-- "R" Leg (Vibrant Action Orange) -->
  <path fill="#f37024" opacity="1.000000" stroke="none"
	d="
M695.582275,473.494965
	C713.542175,495.883484 732.603943,516.644348 750.825562,537.929871 
	C749.410583,539.744263 748.018555,539.485962 746.713623,539.481812 
	C737.382263,539.452332 728.049988,539.323425 718.720093,539.422913 
	C715.769104,539.454346 713.798218,538.394287 711.908691,536.158630 
	C699.542908,521.527405 686.955566,507.082458 674.674255,492.381500 
	C672.042480,489.231262 669.307678,488.059875 665.288208,488.117950
z"/>

  <!-- Left Blue Hook (Navy Blue) -->
  <path fill="#0e1f38" opacity="1.000000" stroke="none" 
	d="
M194.209656,497.000000 
	C194.216858,530.486145 194.227386,563.472351 194.227707,596.458496 
	C194.227783,603.273804 194.210327,603.294739 187.242767,603.306885 
	C177.247009,603.324219 167.249039,603.187805 157.256500,603.367126 
	C153.538284,603.433777 152.617920,602.131958 152.453339,598.446106 
	C151.545868,578.122559 152.575333,557.813721 152.493744,537.500366 
	C152.484451,535.183716 153.131134,533.419128 154.511581,531.583130 
	C164.578247,518.194763 164.608765,502.818115 154.688721,489.559692 
	C153.681458,488.213440 152.626266,486.962708 152.623627,485.145935 
	C152.604034,471.676453 151.835999,458.172760 156.280472,445.074982 
	C167.027191,413.404633 188.719009,394.336090 221.557037,388.000702 
	C227.067062,386.937683 228.165970,387.864349 228.185425,393.367828 
	C228.228989,405.695831 228.123856,418.024902 228.255966,430.351624 
	C228.294006,433.900177 227.162399,435.616882 223.497589,436.596344 
	C204.917313,441.561890 194.396057,455.365479 194.233353,474.509338 
	C194.171051,481.839111 194.214249,489.169739 194.209656,497.000000 
z"/>

  <!-- Right Orange Hook (Vibrant Action Orange) -->
  <path fill="#f37024" opacity="1.000000" stroke="none" 
	d="
M343.007507,615.097290 
	C334.872406,619.540894 326.567688,622.330750 317.813782,623.942566 
	C314.079620,624.630066 312.610229,623.495789 312.638977,619.654541 
	C312.737457,606.496582 312.722229,593.336731 312.604034,580.178955 
	C312.577423,577.212402 313.586670,575.767456 316.519989,574.887817 
	C336.675781,568.843628 353.736450,546.226501 353.872040,524.900391 
	C354.074310,493.087555 353.909302,461.272491 353.947571,429.458374 
	C353.950073,427.387848 353.259399,425.102264 355.428406,422.964874 
	C361.708160,425.402130 367.962250,428.528992 375.093994,428.741425 
	C382.105652,428.950378 388.391876,426.344208 394.477386,424.027710 
	C396.776398,425.599854 396.205872,427.601501 396.207611,429.325958 
	C396.239258,460.307404 397.199219,491.328064 395.963745,522.260559 
	C394.385925,561.765076 377.937958,593.729431 343.007507,615.097290 
z"/>

  <!-- Orange Diagonal Bar (Vibrant Action Orange) -->
  <path fill="#f37024" opacity="1.000000" stroke="none" 
	d="
M243.842957,393.140350 
	C276.239441,425.517639 308.376129,457.653748 340.537262,489.765381 
	C342.232666,491.458130 343.593201,493.101990 343.580627,495.740540 
	C343.517914,508.877014 343.593445,522.014099 343.593109,535.151001 
	C343.593079,536.608154 343.675568,538.134766 342.512817,539.507874 
	C338.999054,538.176147 336.884674,535.291077 334.464966,532.888916 
	C307.059113,505.681549 279.712128,478.414825 252.349503,451.163910 
	C252.113556,450.928986 251.912079,450.641327 251.638626,450.464813 
	C238.419296,441.929596 234.681900,429.700226 236.501236,414.551880 
	C237.520935,406.061615 236.684738,397.348480 236.684738,388.482269 
	C240.410934,388.616760 241.555237,391.427490 243.842957,393.140350 
z"/>

  <!-- Blue Diagonal Bar (Navy Blue) -->
  <path fill="#0e1f38" opacity="1.000000" stroke="none" 
	d="
M209.981201,543.148621 
	C209.872726,527.178528 209.872726,511.624542 209.872726,496.011749 
	C212.751556,495.995667 213.614899,497.874420 214.831146,499.088013 
	C236.053345,520.264404 257.249359,541.467224 278.407257,562.707886 
	C284.533600,568.858215 291.401367,573.647217 300.136536,575.159180 
	C303.052002,575.663879 304.357605,576.995056 304.324860,580.148682 
	C304.188263,593.306396 304.155121,606.467773 304.326172,619.624695 
	C304.382019,623.919678 302.396912,624.838257 298.762726,624.152405 
	C290.390778,622.572388 283.825867,617.918396 277.957306,612.018005 
	C261.512848,595.484253 244.998627,579.019836 228.592316,562.448425 
	C222.392807,556.186462 215.704071,550.400208 209.981201,543.148621 
z"/>

  <!-- Orange Head Circle (Vibrant Action Orange) -->
  <path fill="#f37024" opacity="1.000000" stroke="none" 
	d="
M357.613831,374.729248 
	C366.672607,364.480774 377.771545,361.777008 389.307892,366.760742 
	C398.584808,370.768433 405.105652,382.176025 404.261017,392.919800 
	C403.327423,404.794983 395.357269,413.950287 383.464844,416.808319 
	C373.373474,419.233521 362.663330,415.060028 356.751160,406.398621 
	C350.358887,397.033875 350.606689,385.145660 357.613831,374.729248 
z"/>

  <!-- Blue Head Circle (Navy Blue) -->
  <path fill="#0e1f38" opacity="1.000000" stroke="none" 
	d="
M101.959824,502.403809 
	C109.964043,482.851807 132.079605,477.779388 145.933640,491.958160 
	C154.668610,500.897858 155.639420,514.817993 148.272720,525.498047 
	C141.305298,535.599243 127.602699,539.376648 116.253120,534.324951 
	C104.698112,529.181824 98.597275,517.045837 101.380730,504.738342 
	C101.527679,504.088623 101.683434,503.440857 101.959824,502.403809 
z"/>

  <!-- SUBTEXT "SUPPLY" (Navy Blue) -->
  <!-- "P" -->
  <path fill="#0e1f38" opacity="1.000000" stroke="none" 
	d="
M729.828491,591.000000 
	C729.855530,584.678040 729.952087,578.855103 729.880005,573.034241 
	C729.840332,569.833130 731.235474,568.566833 734.402222,568.647705 
	C739.555542,568.779358 744.721924,568.514648 749.869385,568.733154 
	C757.707703,569.065979 763.589355,574.369263 764.260193,581.375854 
	C765.111511,590.266907 760.898071,596.347839 752.376831,598.261780 
	C750.127319,598.766968 747.728455,599.204895 745.473083,598.966309 
	C740.265381,598.415405 738.486816,600.695496 739.096619,605.572693 
	C739.219055,606.552002 739.012695,607.567810 739.053650,608.562866 
	C739.197205,612.054810 737.350342,613.181885 734.098145,613.175232 
	C730.761597,613.168396 729.789124,611.461426 729.825806,608.467407 
	C729.895203,602.812378 729.834351,597.155823 729.828491,591.000000 
M754.975037,583.521973 
	C753.759399,577.934692 751.494751,576.630371 743.720276,577.083496 
	C741.756042,577.197937 739.275146,576.958618 739.256653,579.793335 
	C739.233765,583.306458 737.372620,587.548706 740.529846,590.159790 
	C744.574463,593.504639 753.425171,589.609009 754.975037,583.521973 
z"/>

  <!-- "P" -->
  <path fill="#0e1f38" opacity="1.000000" stroke="none" 
	d="
M661.798767,568.638672 
	C673.162109,569.212402 678.708862,574.752808 678.315308,584.666870 
	C678.059998,591.096619 674.390808,595.907471 668.050293,597.864075 
	C666.159851,598.447388 664.159912,598.786865 662.185303,598.967407 
	C653.610474,599.751343 653.529236,599.710388 653.030884,608.265930 
	C652.846252,611.437012 651.874268,613.221985 648.308655,613.134155 
	C644.710876,613.045532 643.843933,611.127563 643.859985,607.997009 
	C643.918823,596.526428 643.952881,585.054565 643.837708,573.584839 
	C643.801208,569.952148 645.196716,568.470520 648.860901,568.637817 
	C653.007690,568.827148 657.171021,568.652893 661.798767,568.638672 
M655.036499,590.526733 
	C657.683350,590.493103 660.369812,590.733948 662.967529,590.359436 
	C666.582642,589.838440 669.156982,587.738831 669.440857,583.873657 
	C669.658142,580.914368 668.067688,578.496948 665.292358,577.744812 
	C661.490112,576.714355 657.495667,576.184448 653.738098,578.236694 
	C653.505127,578.363953 653.327759,578.812256 653.326904,579.111877 
	C653.316406,582.834290 651.968689,586.674805 655.036499,590.526733 
z"/>

  <!-- "U" -->
  <path fill="#0e1f38" opacity="1.000000" stroke="none" 
	d="
M576.359558,603.617432 
	C579.861328,601.205200 580.916443,598.024475 580.908447,594.316772 
	C580.894104,587.654968 580.977051,580.992676 580.921265,574.331421 
	C580.893311,570.990601 581.283020,568.561523 585.697876,568.583679 
	C589.888916,568.604736 590.215088,570.896179 590.188416,574.035645 
	C590.127686,581.196716 590.373840,588.366760 590.100769,595.518066 
	C589.747314,604.774719 583.642578,611.858582 575.360901,613.179688 
	C564.887756,614.850220 556.914917,610.872742 553.609741,602.412109 
	C552.864319,600.504089 552.560547,598.553162 552.559143,596.552979 
	C552.553589,588.726196 552.691833,580.898254 552.585815,573.073303 
	C552.542358,569.865845 553.740784,568.637817 556.974854,568.654663 
	C560.288818,568.671875 561.339661,570.152466 561.297668,573.231140 
	C561.206665,579.891785 561.240845,586.555115 561.302979,593.216553 
	C561.393616,602.943604 566.683716,606.724731 576.359558,603.617432 
z"/>

  <!-- "S" -->
  <path fill="#0e1f38" opacity="1.000000" stroke="none" 
	d="
M471.610779,590.477173 
	C463.998901,581.557007 467.463898,571.179138 478.480164,568.505188 
	C484.925537,566.940674 490.634613,568.731323 496.160370,571.824524 
	C498.340668,573.044983 498.940704,574.567261 497.306061,576.662964 
	C495.942719,578.410889 495.088165,579.388184 491.949463,579.388184 
	C489.038849,577.727478 486.106567,576.160950 482.611053,576.260071 
	C479.922974,576.336243 477.392487,577.136353 476.736389,579.936829 
	C476.005219,583.057678 478.432617,584.303223 480.965607,585.104980 
	C484.928558,586.359497 488.960480,587.421936 492.856323,588.856018 
	C497.441193,590.543640 499.475281,594.222534 499.693054,598.943787 
	C499.904083,603.518616 498.631653,607.494995 494.660889,610.241089 
	C487.471008,615.213501 473.894806,614.067017 467.518433,608.049255 
	C465.855164,606.479614 465.522736,605.071899 467.181885,603.408997 
	C468.698486,601.888977 469.700562,598.922791 472.691437,601.203247 
	C476.595093,604.179749 480.941406,605.471313 485.808746,604.761658 
	C488.222107,604.409851 490.457306,603.621094 490.694000,600.679443 
	C490.910400,597.989868 488.982056,596.875977 486.884888,596.078064 
	C481.928436,594.192383 476.467682,593.714722 471.610779,590.477173 
z"/>

  <!-- "Y" -->
  <path fill="#0e1f38" opacity="1.000000" stroke="none" 
	d="
M905.186646,578.832092 
	C906.805664,581.130371 907.679626,583.552612 910.286926,585.416565 
	C912.736633,581.596069 915.116394,577.860413 917.520691,574.140625 
	C921.482971,568.010315 922.336243,567.677429 929.817139,569.243408 
	C930.572998,570.767456 929.411560,571.752869 928.733704,572.817871 
	C926.229675,576.752075 923.987427,580.911743 921.051270,584.499329 
	C915.602539,591.157043 912.971436,598.429016 914.070740,607.070862 
	C914.462097,610.147583 914.248413,613.136902 909.681396,613.180176 
	C905.347595,613.221313 904.523804,610.720032 904.976135,607.365967 
	C906.162537,598.568970 903.238098,591.208252 898.158386,584.158325 
	C894.920227,579.664124 891.661560,575.010071 889.571350,569.701050 
	C896.754456,567.430481 898.542480,568.053955 902.118530,573.843628 
	C903.081482,575.402588 904.047729,576.959473 905.186646,578.832092 
z"/>

  <!-- "L" -->
  <path fill="#0e1f38" opacity="1.000000" stroke="none" 
	d="
M815.742432,606.848938 
	C815.745544,595.554443 815.803833,584.739441 815.715942,573.925598 
	C815.689148,570.631775 816.287659,568.567505 820.326294,568.605408 
	C824.317627,568.642944 824.415039,570.912537 824.397766,573.821716 
	C824.346313,582.473022 824.516052,591.126770 824.367065,599.775635 
	C824.307068,603.259644 825.733765,604.643188 829.068542,604.553101 
	C833.390381,604.436218 837.715393,604.440796 842.037415,604.330017 
	C844.639954,604.263306 846.643066,604.590637 846.526794,608.013916 
	C846.426514,610.963501 846.174255,613.267212 842.305420,613.194336 
	C835.320251,613.062805 828.323486,612.982605 821.345337,613.245300 
	C816.876770,613.413513 815.256897,611.530579 815.742432,606.848938 
z"/>

</svg>
